<svg xmlns="http://www.w3.org/2000/svg" viewBox="0 0 64 64" width="64" height="64">
  <rect width="64" height="64" rx="14" fill="#D6EEF7"/>
  <!-- 받침 -->
  <ellipse cx="32" cy="51.5" rx="19" ry="4.4" fill="#C04E22"/>
  <!-- 몸통 -->
  <path d="M17.5 30 H46.5 L43 49 a3 3 0 0 1 -3 2.6 H24 a3 3 0 0 1 -3 -2.6 Z" fill="#E2622E"/>
  <!-- 몸통 음영 -->
  <path d="M32 30 H46.5 L43 49 a3 3 0 0 1 -3 2.6 H32 Z" fill="#D2531F" opacity="0.35"/>
  <!-- 테두리(림) -->
  <rect x="14.5" y="22.5" width="35" height="9.5" rx="4.2" fill="#EE6E33"/>
  <rect x="14.5" y="22.5" width="35" height="4.6" rx="2.3" fill="#F4854C" opacity="0.7"/>
  <!-- 얼굴 -->
  <circle cx="26.5" cy="40" r="2.4" fill="#241208"/>
  <circle cx="37.5" cy="40" r="2.4" fill="#241208"/>
  <path d="M27 45.2 q5 4.4 10 0" fill="none" stroke="#241208" stroke-width="2.4" stroke-linecap="round"/>
</svg>
